<svg width="50" height="50" viewBox="0 0 50 50" fill="none" xmlns="http://www.w3.org/2000/svg">
<g id="documents 1" clip-path="url(#clip0_837_455)">
<g id="g2031">
<g id="g2033">
<g id="Clip path group">
<mask id="mask0_837_455" style="mask-type:luminance" maskUnits="userSpaceOnUse" x="0" y="0" width="50" height="50">
<g id="clipPath2039">
<path id="path2037" d="M0 3.8147e-06H50V50H0V3.8147e-06Z" fill="white"/>
</g>
</mask>
<g mask="url(#mask0_837_455)">
<g id="g2035">
<g id="g2041">
<path id="path2043" d="M34.9281 45.8988H2.92969C1.85557 45.8988 0.976562 45.0199 0.976562 43.9457V15.6253C0.976562 15.0882 1.41601 14.6487 1.95303 14.6487H15.0513C15.7958 14.6487 16.4122 15.1518 16.6723 15.8021L18.5548 20.5082H40.0391C41.1133 20.5082 41.9922 21.3871 41.9922 22.4612V27.1887" stroke="#3B4BDC" stroke-miterlimit="2.613" stroke-linecap="round" stroke-linejoin="round"/>
</g>
<g id="g2045">
<path id="path2047" d="M5.85938 13.6722V1.95294C5.85938 1.41583 6.29883 0.976379 6.83594 0.976379H36.1328C36.6699 0.976379 37.1094 1.41583 37.1094 1.95294V19.5316" stroke="#3B4BDC" stroke-miterlimit="2.613" stroke-linecap="round" stroke-linejoin="round"/>
</g>
<g id="g2049">
<path id="path2051" d="M39.2581 49.0234C51.7212 41.9087 48.7021 29.2146 48.7021 29.2146C46.3043 29.2146 41.0441 27.3519 39.2581 25.5859C37.472 27.3519 32.2118 29.2146 29.814 29.2146C29.814 29.2146 26.7949 41.9087 39.2581 49.0234Z" stroke="#3B4BDC" stroke-miterlimit="2.613" stroke-linecap="round" stroke-linejoin="round"/>
</g>
<g id="g2053">
<path id="path2055" d="M10.4004 4.88269H32.5683" stroke="#3B4BDC" stroke-miterlimit="2.613" stroke-linecap="round" stroke-linejoin="round"/>
</g>
<g id="g2057">
<path id="path2059" d="M10.4004 8.78894H32.5683" stroke="#3B4BDC" stroke-miterlimit="2.613" stroke-linecap="round" stroke-linejoin="round"/>
</g>
<g id="g2061">
<path id="path2063" d="M21.4844 12.6952H32.5683" stroke="#3B4BDC" stroke-miterlimit="2.613" stroke-linecap="round" stroke-linejoin="round"/>
</g>
<g id="g2065">
<path id="path2067" d="M26.8066 16.6014H32.5684" stroke="#3B4BDC" stroke-miterlimit="2.613" stroke-linecap="round" stroke-linejoin="round"/>
</g>
<g id="g2069">
<path id="path2071" d="M34.229 38.5395C33.4663 37.7768 33.4663 36.5403 34.229 35.7777C34.9917 35.015 36.2282 35.015 36.9908 35.7777L38.1394 36.9262L41.5252 33.5404C42.2879 32.7777 43.5245 32.7777 44.2871 33.5404C45.0497 34.303 45.0497 35.5395 44.2871 36.3022L39.5203 41.069C38.7577 41.8316 37.5211 41.8316 36.7585 41.069L34.229 38.5395Z" stroke="#3B4BDC" stroke-miterlimit="22.926" stroke-linecap="round" stroke-linejoin="round"/>
</g>
<g id="g2073">
<path id="path2075" d="M7.03086 41.9924H1.66016M11.4258 41.9924H11.4251" stroke="#3B4BDC" stroke-miterlimit="22.926" stroke-linecap="round" stroke-linejoin="round"/>
</g>
</g>
</g>
</g>
</g>
</g>
</g>
<defs>
<clipPath id="clip0_837_455">
<rect width="50" height="50" fill="white"/>
</clipPath>
</defs>
</svg>
