<svg width="36" height="37" viewBox="0 0 36 37" fill="none" xmlns="http://www.w3.org/2000/svg">
<g id="Frame 66">
<path id="Vector" d="M28.4364 4.5H7.56364C6.6185 4.5 5.71208 4.87545 5.04376 5.54376C4.37545 6.21208 4 7.1185 4 8.06364V28.9364C4 29.8815 4.37545 30.7879 5.04376 31.4562C5.71208 32.1245 6.6185 32.5 7.56364 32.5H17.7881V20.8497H15.458V16.1896H17.7688V14.0836C17.7688 12.1776 18.6768 9.1998 22.6726 9.1998L26.2722 9.21425V13.2069H23.6581C23.2331 13.2069 22.6283 13.4185 22.6283 14.3263V16.1899H26.3316L25.9065 20.85H22.4482V32.5H28.4364C28.9043 32.5 29.3677 32.4078 29.8001 32.2287C30.2325 32.0496 30.6253 31.7871 30.9562 31.4562C31.2871 31.1253 31.5496 30.7325 31.7287 30.3001C31.9078 29.8677 32 29.4043 32 28.9364V8.06364C32 7.59565 31.9078 7.13225 31.7287 6.69989C31.5496 6.26753 31.2871 5.87468 30.9562 5.54376C30.6253 5.21285 30.2325 4.95036 29.8001 4.77127C29.3677 4.59218 28.9043 4.5 28.4364 4.5Z" fill="#222222"/>
</g>
</svg>
