<svg width="50" height="50" viewBox="0 0 50 50" fill="none" xmlns="http://www.w3.org/2000/svg">
<g id="file 1">
<g id="g15">
<g id="g17">
<g id="Clip path group">
<mask id="mask0_837_483" style="mask-type:luminance" maskUnits="userSpaceOnUse" x="0" y="0" width="50" height="50">
<g id="clipPath23">
<path id="path21" d="M0 3.8147e-06H50V50H0V3.8147e-06Z" fill="white"/>
</g>
</mask>
<g mask="url(#mask0_837_483)">
<g id="g19">
<g id="g25">
<path id="path27" d="M24.9078 45.1171H6.44521C5.9085 45.1171 5.46875 44.6777 5.46875 44.1406V10.7423L15.2347 0.976505H39.6484C40.1855 0.976505 40.625 1.41625 40.625 1.95307V29.3941" stroke="#3B4BDC" stroke-miterlimit="22.926" stroke-linecap="round" stroke-linejoin="round"/>
</g>
<g id="g29">
<path id="path31" d="M15.2346 1.95305V9.76584C15.2346 10.3028 14.795 10.7423 14.258 10.7423H6.44531" stroke="#3B4BDC" stroke-miterlimit="22.926" stroke-linecap="round" stroke-linejoin="round"/>
</g>
<g id="g33">
<path id="path35" d="M15.7224 19.5317H34.7657" stroke="#3B4BDC" stroke-miterlimit="22.926" stroke-linecap="round" stroke-linejoin="round"/>
</g>
<g id="g37">
<path id="path39" d="M11.3281 23.9265H34.7656" stroke="#3B4BDC" stroke-miterlimit="22.926" stroke-linecap="round" stroke-linejoin="round"/>
</g>
<g id="g41">
<path id="path43" d="M11.3281 15.1371H34.7656" stroke="#3B4BDC" stroke-miterlimit="22.926" stroke-linecap="round" stroke-linejoin="round"/>
</g>
<g id="g45">
<path id="path47" d="M11.3281 28.3211H21.0937" stroke="#3B4BDC" stroke-miterlimit="22.926" stroke-linecap="round" stroke-linejoin="round"/>
</g>
<g id="g49">
<path id="path51" d="M11.3281 32.7158H17.1875" stroke="#3B4BDC" stroke-miterlimit="22.926" stroke-linecap="round" stroke-linejoin="round"/>
</g>
<g id="g53">
<path id="path55" d="M11.3274 19.5317H11.3281" stroke="#3B4BDC" stroke-miterlimit="2.613" stroke-linecap="round" stroke-linejoin="round"/>
</g>
<g id="g57">
<path id="path59" d="M37.2909 35.2728C38.0536 34.5101 39.2902 34.5101 40.0528 35.2728C40.8155 36.0355 40.8155 37.2721 40.0528 38.0347L34.8445 43.2431C34.0819 44.0057 32.8452 44.0057 32.0826 43.2431L29.4784 40.6389C28.7158 39.8763 28.7158 38.6396 29.4784 37.877C30.2411 37.1143 31.4777 37.1143 32.2403 37.877L33.4636 39.1003L37.2909 35.2728Z" stroke="#3B4BDC" stroke-miterlimit="22.926" stroke-linecap="round" stroke-linejoin="round"/>
</g>
<g id="g61">
<path id="path63" d="M26.9531 29.4923H42.5781C43.6523 29.4923 44.5312 30.3712 44.5312 31.4454V47.0704C44.5312 48.1447 43.6523 49.0236 42.5781 49.0236H26.9531C25.8789 49.0236 25 48.1447 25 47.0704V31.4454C25 30.3712 25.8789 29.4923 26.9531 29.4923Z" stroke="#3B4BDC" stroke-miterlimit="22.926" stroke-linecap="round" stroke-linejoin="round"/>
</g>
</g>
</g>
</g>
</g>
</g>
</g>
</svg>
