<svg width="50" height="50" viewBox="0 0 50 50" fill="none" xmlns="http://www.w3.org/2000/svg">
<g id="forklift 1">
<g id="Group">
<path id="Vector" d="M31.569 44.03C34.8046 44.03 37.4276 41.407 37.4276 38.1714C37.4276 34.9358 34.8046 32.3128 31.569 32.3128C28.3334 32.3128 25.7104 34.9358 25.7104 38.1714C25.7104 41.407 28.3334 44.03 31.569 44.03Z" stroke="#3B4BDC" stroke-miterlimit="10"/>
<path id="Vector_2" d="M31.569 40.3684C32.7824 40.3684 33.766 39.3847 33.766 38.1714C33.766 36.958 32.7824 35.9744 31.569 35.9744C30.3557 35.9744 29.3721 36.958 29.3721 38.1714C29.3721 39.3847 30.3557 40.3684 31.569 40.3684Z" stroke="#3B4BDC" stroke-miterlimit="10"/>
<path id="Vector_3" d="M7.98156 41.8468C7.17093 40.8418 6.68555 39.5632 6.68555 38.1715C6.68555 34.9359 9.30853 32.3129 12.5441 32.3129C15.7797 32.3129 18.4027 34.9359 18.4027 38.1715C18.4027 41.4071 15.7797 44.0301 12.5441 44.0301C11.2615 44.0301 10.075 43.6179 9.11022 42.9187" stroke="#3B4BDC" stroke-miterlimit="10"/>
<path id="Vector_4" d="M12.5441 40.3684C13.7575 40.3684 14.7411 39.3847 14.7411 38.1714C14.7411 36.958 13.7575 35.9744 12.5441 35.9744C11.3308 35.9744 10.3472 36.958 10.3472 38.1714C10.3472 39.3847 11.3308 40.3684 12.5441 40.3684Z" stroke="#3B4BDC" stroke-miterlimit="10"/>
<path id="Vector_5" d="M27.7729 21.3414L31.569 32.3128" stroke="#3B4BDC" stroke-miterlimit="10"/>
<path id="Vector_6" d="M7.41797 13.3088H24.9937L27.2763 19.906" stroke="#3B4BDC" stroke-miterlimit="10"/>
<path id="Vector_7" d="M12.5441 32.3181H2.29468V31.7439L4.48852 26.5031H16.9536L22.7929 32.3226H31.569" stroke="#3B4BDC" stroke-miterlimit="10"/>
<path id="Vector_8" d="M2.32381 32.3128H0.732422V38.1714L6.7073 38.1943" stroke="#3B4BDC" stroke-miterlimit="10"/>
<path id="Vector_9" d="M14.0086 13.3088H11.0793V26.5032H14.0086V13.3088Z" stroke="#3B4BDC" stroke-miterlimit="10"/>
<path id="Vector_10" d="M18.4026 38.1964H25.7285" stroke="#3B4BDC" stroke-miterlimit="10"/>
<path id="Vector_11" d="M17.6704 41.125H26.4583" stroke="#3B4BDC" stroke-miterlimit="10"/>
<path id="Vector_12" d="M16.9536 26.503V20.6163H17.6776C18.8909 20.6163 19.8746 21.6 19.8746 22.8133V29.3614" stroke="#3B4BDC" stroke-miterlimit="10"/>
<path id="Vector_13" d="M40.3568 38.1957V23.5457H37.4275V41.125H49.2678V38.1957H40.3568Z" stroke="#3B4BDC" stroke-miterlimit="10"/>
<path id="Vector_14" d="M37.4275 26.5031H40.3567" stroke="#3B4BDC" stroke-miterlimit="10"/>
<path id="Vector_15" d="M37.4275 26.503V5.96997" stroke="#3B4BDC" stroke-miterlimit="10"/>
<path id="Vector_16" d="M35.2461 5.96997H39.64" stroke="#3B4BDC" stroke-miterlimit="10"/>
<path id="Vector_17" d="M6.70728 28.6647V30.1293" stroke="#3B4BDC" stroke-miterlimit="10"/>
<path id="Vector_18" d="M9.64893 28.6647V30.1293" stroke="#3B4BDC" stroke-miterlimit="10"/>
</g>
</g>
</svg>
