<svg width="50" height="50" viewBox="0 0 50 50" fill="none" xmlns="http://www.w3.org/2000/svg">
<g id="production (1) 1" clip-path="url(#clip0_837_292)">
<g id="g2427">
<g id="g2429">
<g id="Clip path group">
<mask id="mask0_837_292" style="mask-type:luminance" maskUnits="userSpaceOnUse" x="0" y="0" width="50" height="50">
<g id="clipPath2435">
<path id="path2433" d="M0 3.8147e-06H50V50H0V3.8147e-06Z" fill="white"/>
</g>
</mask>
<g mask="url(#mask0_837_292)">
<g id="g2431">
<g id="g2437">
<path id="path2439" d="M34.6927 25.8199H36.7828C37.2625 25.8199 37.6514 25.431 37.6514 24.9512V23.1402C37.6514 22.7752 37.8786 22.4463 38.2226 22.3246C38.54 22.2125 38.8496 22.0841 39.1504 21.9406C39.48 21.7834 39.8732 21.8548 40.1314 22.1131L41.412 23.3936C41.7511 23.7329 42.3011 23.7329 42.6404 23.3936L45.1382 20.8958C45.4775 20.5566 45.4775 20.0066 45.1382 19.6673L43.8578 18.3869C43.5996 18.1286 43.528 17.7354 43.6852 17.4059C43.8288 17.1049 43.9571 16.7954 44.0692 16.4781C44.1909 16.1339 44.5198 15.9068 44.8848 15.9068H46.6959C47.1756 15.9068 47.5645 15.5179 47.5645 15.0381V11.5056C47.5645 11.0259 47.1756 10.637 46.6959 10.637H44.8848C44.5198 10.637 44.1909 10.4098 44.0692 10.0658C43.9571 9.7485 43.8288 9.43893 43.6852 9.13795C43.528 8.80836 43.5996 8.4151 43.8578 8.157L45.1382 6.87653C45.4775 6.53727 45.4775 5.98727 45.1382 5.64801L42.6404 3.15016C42.3011 2.811 41.7511 2.811 41.412 3.15016L40.1314 4.43073C39.8732 4.68883 39.48 4.76051 39.1504 4.60319C38.8496 4.45963 38.54 4.33141 38.2226 4.2192C37.8786 4.09752 37.6514 3.76862 37.6514 3.40358V1.59254C37.6514 1.11276 37.2625 0.723891 36.7828 0.723891H33.2502C32.7705 0.723891 32.3816 1.11276 32.3816 1.59254V3.40358C32.3816 3.76862 32.1544 4.09752 31.8103 4.2192C31.4931 4.33141 31.1834 4.45963 30.8826 4.60319C30.553 4.76051 30.1598 4.68883 29.9015 4.43073L28.621 3.15016C28.2819 2.811 27.7319 2.811 27.3926 3.15016L24.8948 5.64801C24.5555 5.98727 24.5555 6.53727 24.8948 6.87653L26.1752 8.157C26.4334 8.4151 26.505 8.80836 26.3478 9.13795C26.2042 9.43893 26.076 9.7485 25.9638 10.0658C25.8421 10.4098 25.5131 10.637 25.1482 10.637H23.3372C22.8574 10.637 22.4685 11.0259 22.4685 11.5056V13.5973" stroke="#3B4BDC" stroke-miterlimit="10" stroke-linecap="round" stroke-linejoin="round"/>
</g>
<g id="g2441">
<path id="path2443" d="M28.8791 13.8178C28.8632 13.6379 28.8552 13.4559 28.8552 13.2719C28.8552 9.86909 31.6137 7.1105 35.0166 7.1105C38.4194 7.1105 41.1779 9.86909 41.1779 13.2719C41.1779 16.6748 38.4194 19.4333 35.0166 19.4333C34.9081 19.4333 34.8002 19.4305 34.6932 19.425" stroke="#3B4BDC" stroke-miterlimit="10" stroke-linecap="round" stroke-linejoin="round"/>
</g>
<g id="g2445">
<path id="path2447" d="M10.9747 49.2762H7.62739C3.80767 49.2762 0.711182 46.1796 0.711182 42.36C0.711182 38.5401 3.80767 35.4437 7.62739 35.4437H42.3726C46.1923 35.4437 49.2888 38.5401 49.2888 42.36C49.2888 46.1796 46.1923 49.2762 42.3726 49.2762H14.3741" stroke="#3B4BDC" stroke-miterlimit="10" stroke-linecap="round" stroke-linejoin="round"/>
</g>
<g id="g2449">
<path id="path2451" d="M12.5142 42.3599C12.5142 43.8862 11.2769 45.1236 9.75049 45.1236C8.22422 45.1236 6.98682 43.8862 6.98682 42.3599C6.98682 40.8336 8.22422 39.5963 9.75049 39.5963C11.2769 39.5963 12.5142 40.8336 12.5142 42.3599Z" stroke="#3B4BDC" stroke-miterlimit="10" stroke-linecap="round" stroke-linejoin="round"/>
</g>
<g id="g2453">
<path id="path2455" d="M22.6804 42.3599C22.6804 43.8862 21.4431 45.1236 19.9167 45.1236C18.3905 45.1236 17.1531 43.8862 17.1531 42.3599C17.1531 40.8336 18.3905 39.5963 19.9167 39.5963C21.4431 39.5963 22.6804 40.8336 22.6804 42.3599Z" stroke="#3B4BDC" stroke-miterlimit="10" stroke-linecap="round" stroke-linejoin="round"/>
</g>
<g id="g2457">
<path id="path2459" d="M32.8467 42.3599C32.8467 43.8862 31.6094 45.1236 30.083 45.1236C28.5567 45.1236 27.3193 43.8862 27.3193 42.3599C27.3193 40.8336 28.5567 39.5963 30.083 39.5963C31.6094 39.5963 32.8467 40.8336 32.8467 42.3599Z" stroke="#3B4BDC" stroke-miterlimit="10" stroke-linecap="round" stroke-linejoin="round"/>
</g>
<g id="g2461">
<path id="path2463" d="M43.0132 42.3599C43.0132 43.8862 41.7759 45.1236 40.2495 45.1236C38.7231 45.1236 37.4858 43.8862 37.4858 42.3599C37.4858 40.8336 38.7231 39.5963 40.2495 39.5963C41.7759 39.5963 43.0132 40.8336 43.0132 42.3599Z" stroke="#3B4BDC" stroke-miterlimit="10" stroke-linecap="round" stroke-linejoin="round"/>
</g>
<g id="g2465">
<path id="path2467" d="M34.6926 31.8073V35.4437H13.0667V14.583C13.0667 14.1604 13.4093 13.8177 13.832 13.8177H33.9273C34.35 13.8177 34.6926 14.1604 34.6926 14.583V28.4194" stroke="#3B4BDC" stroke-miterlimit="10" stroke-linecap="round" stroke-linejoin="round"/>
</g>
<g id="g2469">
<path id="path2471" d="M23.8798 13.8177H21.2981V19.5606C21.2981 19.9006 21.6577 20.1203 21.9603 19.9652L23.6723 19.0876C23.8026 19.0208 23.9571 19.0208 24.0873 19.0876L25.7994 19.9652C26.102 20.1203 26.4616 19.9006 26.4616 19.5606V13.8177H23.8798Z" stroke="#3B4BDC" stroke-miterlimit="10" stroke-linecap="round" stroke-linejoin="round"/>
</g>
<g id="g2473">
<path id="path2475" d="M27.5224 31.8074H20.2369C19.9948 31.8074 19.7986 31.6112 19.7986 31.3693V28.243C19.7986 28.0009 19.9948 27.8047 20.2369 27.8047H27.5224C27.7645 27.8047 27.9607 28.0009 27.9607 28.243V31.3693C27.9607 31.6112 27.7645 31.8074 27.5224 31.8074Z" stroke="#3B4BDC" stroke-miterlimit="10" stroke-linecap="round" stroke-linejoin="round"/>
</g>
</g>
</g>
</g>
</g>
</g>
</g>
<defs>
<clipPath id="clip0_837_292">
<rect width="50" height="50" fill="white"/>
</clipPath>
</defs>
</svg>
