<svg width="50" height="50" viewBox="0 0 50 50" fill="none" xmlns="http://www.w3.org/2000/svg">
<g id="screwdriver 1">
<g id="Group">
<path id="Vector" d="M43.5542 12.9592V11.2076C43.5542 10.6683 43.9914 10.2311 44.5308 10.2311H48.2911C48.8305 10.2311 49.2677 10.6683 49.2677 11.2076V20.7027C49.2677 21.242 48.8305 21.6792 48.2911 21.6792H44.5308C43.9914 21.6792 43.5542 21.242 43.5542 20.7027V18.9432" stroke="#3B4BDC" stroke-miterlimit="10" stroke-linecap="round" stroke-linejoin="round"/>
<path id="Vector_2" d="M6.4459 12.9592V11.2076C6.4459 10.6683 6.00869 10.2311 5.46934 10.2311H1.70898C1.16963 10.2311 0.732422 10.6683 0.732422 11.2076V20.7027C0.732422 21.242 1.16963 21.6792 1.70898 21.6792H5.46934C6.00869 21.6792 6.4459 21.242 6.4459 20.7027V18.9432" stroke="#3B4BDC" stroke-miterlimit="10" stroke-linecap="round" stroke-linejoin="round"/>
<path id="Vector_3" d="M27.7364 44.4668V45.9196C27.7364 46.5055 27.2615 46.9805 26.6755 46.9805H23.3243C22.7384 46.9805 22.2634 46.5056 22.2634 45.9196V44.4668" stroke="#3B4BDC" stroke-miterlimit="10" stroke-linecap="round" stroke-linejoin="round"/>
<path id="Vector_4" d="M22.2637 25.9163V24.491C22.2637 23.9052 22.7386 23.4302 23.3245 23.4302H26.6758C27.2616 23.4302 27.7366 23.9051 27.7366 24.491V26.041" stroke="#3B4BDC" stroke-miterlimit="10" stroke-linecap="round" stroke-linejoin="round"/>
<path id="Vector_5" d="M27.7364 44.218H22.2635C21.617 44.218 21.093 43.694 21.093 43.0475V27.3632C21.093 26.7167 21.617 26.1927 22.2635 26.1927H27.7364C28.3829 26.1927 28.9069 26.7167 28.9069 27.3632V43.0474C28.9069 43.6939 28.3829 44.218 27.7364 44.218Z" stroke="#3B4BDC" stroke-miterlimit="10" stroke-linecap="round" stroke-linejoin="round"/>
<path id="Vector_6" d="M21.5884 40.8387H28.4116" stroke="#3B4BDC" stroke-miterlimit="10" stroke-linecap="round" stroke-linejoin="round"/>
<path id="Vector_7" d="M26.6756 12.9592V9.8959L27.8911 7.48584L26.6554 3.01953H23.3446L22.1089 7.48584L23.3244 9.8959V12.9592" stroke="#3B4BDC" stroke-miterlimit="10" stroke-linecap="round" stroke-linejoin="round"/>
<path id="Vector_8" d="M26.6755 23.1736V18.9432" stroke="#3B4BDC" stroke-miterlimit="10" stroke-linecap="round" stroke-linejoin="round"/>
<path id="Vector_9" d="M23.3245 18.9432V23.1736" stroke="#3B4BDC" stroke-miterlimit="10" stroke-linecap="round" stroke-linejoin="round"/>
<path id="Vector_10" d="M40.7308 44.4668V45.9196C40.7308 46.5055 40.2559 46.9805 39.6699 46.9805H36.3187C35.7328 46.9805 35.2578 46.5056 35.2578 45.9196V44.4668" stroke="#3B4BDC" stroke-miterlimit="10" stroke-linecap="round" stroke-linejoin="round"/>
<path id="Vector_11" d="M35.2578 26.041V24.491C35.2578 23.9052 35.7327 23.4302 36.3187 23.4302H39.6699C40.2558 23.4302 40.7308 23.9051 40.7308 24.491V25.9163" stroke="#3B4BDC" stroke-miterlimit="10" stroke-linecap="round" stroke-linejoin="round"/>
<path id="Vector_12" d="M41.9014 32.5215V43.0479C41.9014 43.6943 41.377 44.2178 40.7305 44.2178H35.2578C34.6113 44.2178 34.0869 43.6943 34.0869 43.0479V27.3633C34.0869 26.7168 34.6113 26.1924 35.2578 26.1924H40.7305C41.377 26.1924 41.9014 26.7168 41.9014 27.3633V29.1035" stroke="#3B4BDC" stroke-miterlimit="10" stroke-linecap="round" stroke-linejoin="round"/>
<path id="Vector_13" d="M34.5828 40.8387H41.4059" stroke="#3B4BDC" stroke-miterlimit="10" stroke-linecap="round" stroke-linejoin="round"/>
<path id="Vector_14" d="M39.6699 12.9592V9.8959L41.1824 7.48584L39.1825 3.01953H36.8062L34.8062 7.48584L36.3187 9.8959V12.9592" stroke="#3B4BDC" stroke-miterlimit="10" stroke-linecap="round" stroke-linejoin="round"/>
<path id="Vector_15" d="M39.6699 23.3018V18.9432" stroke="#3B4BDC" stroke-miterlimit="10" stroke-linecap="round" stroke-linejoin="round"/>
<path id="Vector_16" d="M36.3186 18.9432V23.3018" stroke="#3B4BDC" stroke-miterlimit="10" stroke-linecap="round" stroke-linejoin="round"/>
<path id="Vector_17" d="M37.9944 3.01953V7.01387" stroke="#3B4BDC" stroke-miterlimit="10" stroke-linecap="round" stroke-linejoin="round"/>
<path id="Vector_18" d="M14.7421 44.4668V45.9196C14.7421 46.5055 14.2672 46.9805 13.6813 46.9805H10.3301C9.74429 46.9805 9.26929 46.5056 9.26929 45.9196V44.4668" stroke="#3B4BDC" stroke-miterlimit="10" stroke-linecap="round" stroke-linejoin="round"/>
<path id="Vector_19" d="M9.26929 26.041V24.491C9.26929 23.9052 9.74419 23.4302 10.3301 23.4302H13.6814C14.2672 23.4302 14.7422 23.9051 14.7422 24.491V26.041" stroke="#3B4BDC" stroke-miterlimit="10" stroke-linecap="round" stroke-linejoin="round"/>
<path id="Vector_20" d="M8.09863 36.04V43.0479C8.09863 43.6943 8.62305 44.2178 9.26953 44.2178H14.7422C15.3887 44.2178 15.9131 43.6943 15.9131 43.0479V27.3633C15.9131 26.7168 15.3887 26.1924 14.7422 26.1924H9.26953C8.62305 26.1924 8.09863 26.7168 8.09863 27.3633V32.6221" stroke="#3B4BDC" stroke-miterlimit="10" stroke-linecap="round" stroke-linejoin="round"/>
<path id="Vector_21" d="M8.59424 40.8387H15.4174" stroke="#3B4BDC" stroke-miterlimit="10" stroke-linecap="round" stroke-linejoin="round"/>
<path id="Vector_22" d="M13.6813 12.9592V5.81162L12.0057 3.01953L10.3301 5.81162V12.9592" stroke="#3B4BDC" stroke-miterlimit="10" stroke-linecap="round" stroke-linejoin="round"/>
<path id="Vector_23" d="M13.6814 23.1736V18.9432" stroke="#3B4BDC" stroke-miterlimit="10" stroke-linecap="round" stroke-linejoin="round"/>
<path id="Vector_24" d="M10.3301 18.9432V23.1736" stroke="#3B4BDC" stroke-miterlimit="10" stroke-linecap="round" stroke-linejoin="round"/>
<path id="Vector_25" d="M19.8916 13.2246H45.4346C45.9736 13.2246 46.4111 13.6621 46.4111 14.2012V17.709C46.4111 18.248 45.9736 18.6855 45.4346 18.6855H32.832" stroke="#3B4BDC" stroke-miterlimit="10" stroke-linecap="round" stroke-linejoin="round"/>
<path id="Vector_26" d="M16.4736 13.2246H4.56543C4.02637 13.2246 3.58887 13.6621 3.58887 14.2012V17.709C3.58887 18.248 4.02637 18.6855 4.56543 18.6855H29.4141" stroke="#3B4BDC" stroke-miterlimit="10" stroke-linecap="round" stroke-linejoin="round"/>
</g>
</g>
</svg>
