<svg width="50" height="50" viewBox="0 0 50 50" fill="none" xmlns="http://www.w3.org/2000/svg">
<g id="cpr 1">
<g id="Group">
<path id="Vector" d="M27.9219 33.0039C27.9219 33.0039 32.0078 38.6514 32.0166 38.665" stroke="#3B4BDC" stroke-miterlimit="10" stroke-linecap="round" stroke-linejoin="round"/>
<path id="Vector_2" d="M24.0752 31.5518H16.791" stroke="#3B4BDC" stroke-miterlimit="10" stroke-linecap="round" stroke-linejoin="round"/>
<path id="Vector_3" d="M8.28125 39.8682C8.39941 39.4346 8.59668 39.0127 8.87793 38.624L12.9443 33.0029" stroke="#3B4BDC" stroke-miterlimit="10" stroke-linecap="round" stroke-linejoin="round"/>
<path id="Vector_4" d="M19.4043 37.4102L13.4658 24.0957" stroke="#3B4BDC" stroke-miterlimit="10" stroke-linecap="round" stroke-linejoin="round"/>
<path id="Vector_5" d="M16.0059 39.8682L9.71777 25.7676" stroke="#3B4BDC" stroke-miterlimit="10" stroke-linecap="round" stroke-linejoin="round"/>
<path id="Vector_6" d="M18.5713 39.8682V38.8184C18.5713 38.1289 19.0117 37.5156 19.665 37.2949L21.2686 36.7539C21.6338 36.6309 21.9297 36.3613 22.0869 36.0098L27.4004 24.0957" stroke="#3B4BDC" stroke-miterlimit="10" stroke-linecap="round" stroke-linejoin="round"/>
<path id="Vector_7" d="M25.5898 39.9063V38.5147C25.5898 38.3291 25.6289 38.1455 25.7041 37.9756L31.1494 25.7676" stroke="#3B4BDC" stroke-miterlimit="10" stroke-linecap="round" stroke-linejoin="round"/>
<path id="Vector_8" d="M25.4277 12.4971L31.7637 15.666C33.543 16.5547 34.3076 18.6885 33.4961 20.5049L31.1494 25.7676L27.4004 24.0957L28.7549 21.0605" stroke="#3B4BDC" stroke-miterlimit="10" stroke-linecap="round" stroke-linejoin="round"/>
<path id="Vector_9" d="M12.1123 21.0605L13.4658 24.0957L9.71779 25.7676L7.37013 20.5049C6.55959 18.6885 7.32326 16.5547 9.10255 15.666L15.4785 12.4785" stroke="#3B4BDC" stroke-miterlimit="10" stroke-linecap="round" stroke-linejoin="round"/>
<path id="Vector_10" d="M29.4111 42.2451H31.2139C31.3623 42.2451 31.4727 42.1064 31.4355 41.9639C31.3564 41.6504 31.3135 41.3242 31.3135 40.9912C31.3135 39.6289 31.9746 38.3506 33.0879 37.5625L35.251 36.0322C35.7373 35.6875 36.4102 35.7978 36.7617 36.2783L37.1279 36.7793C37.3555 37.0898 37.7178 37.2744 38.1035 37.2744H42.7715" stroke="#3B4BDC" stroke-miterlimit="10" stroke-linecap="round" stroke-linejoin="round"/>
<path id="Vector_11" d="M34.4463 46.8242L33.9932 46.6768C33.5254 46.5244 33.0361 46.4463 32.543 46.4463H30.3066" stroke="#3B4BDC" stroke-miterlimit="10" stroke-linecap="round" stroke-linejoin="round"/>
<path id="Vector_12" d="M38.835 42.3486C38.835 41.9619 39.3965 40.5069 41.0469 40.4786C42.1973 40.4591 41.5459 38.044 43.0547 37.048C45.377 35.5157 47.6748 37.5919 47.3525 41.796" stroke="#3B4BDC" stroke-miterlimit="10" stroke-linecap="round" stroke-linejoin="round"/>
<path id="Vector_13" d="M36.8633 43.832C34.4971 44.4814 34.4453 46.1816 34.4453 46.8027C34.4453 47.4414 35.7803 49.2676 40.291 49.2676C43.915 49.2676 45.9541 47.0947 46.6348 45.1582" stroke="#3B4BDC" stroke-miterlimit="10" stroke-linecap="round" stroke-linejoin="round"/>
<path id="Vector_14" d="M36.8103 43.317C36.7463 44.2888 37.6473 45.3418 38.8434 45.3917C40.4174 45.4574 41.5683 43.4265 38.8349 42.3486" stroke="#3B4BDC" stroke-miterlimit="10" stroke-linecap="round" stroke-linejoin="round"/>
<path id="Vector_15" d="M2.61719 49.2676H27.125C28.7646 49.2676 30.1188 48.0354 30.3066 46.4463C30.3214 46.3213 30.3291 46.1934 30.3291 46.0635V45.252C30.3291 44.1387 29.9906 43.1039 29.4111 42.2451C28.4435 40.8111 26.8037 39.8682 24.9443 39.8682H2.61719" stroke="#3B4BDC" stroke-miterlimit="10" stroke-linecap="round" stroke-linejoin="round"/>
<path id="Vector_16" d="M2.61719 49.2676H15.2839" stroke="#3B4BDC" stroke-miterlimit="10" stroke-linecap="round" stroke-linejoin="round"/>
<path id="Vector_17" d="M15.2842 45.2402H2.61719" stroke="#3B4BDC" stroke-miterlimit="10" stroke-linecap="round" stroke-linejoin="round"/>
<path id="Vector_18" d="M15.2839 49.2676V44.2872C15.2839 43.9399 15.5653 43.6583 15.9126 43.6583H22.2596C23.8085 43.6583 25.0643 44.914 25.0643 46.463C25.0643 48.0119 23.8086 49.2677 22.2596 49.2677" stroke="#3B4BDC" stroke-miterlimit="10" stroke-linecap="round" stroke-linejoin="round"/>
<path id="Vector_19" d="M15.4775 12.3643C13.6992 10.4141 11.5097 3.13966 15.2822 3.16212C16.4453 0.775401 20.5732 0.0898546 23.7012 1.36036" stroke="#3B4BDC" stroke-miterlimit="10" stroke-linecap="round" stroke-linejoin="round"/>
<path id="Vector_20" d="M26.415 3.37695C27.8564 5.3125 28.0322 8.3418 25.3867 12.5635" stroke="#3B4BDC" stroke-miterlimit="10" stroke-linecap="round" stroke-linejoin="round"/>
<path id="Vector_21" d="M25.3894 8.4891V12.4213C25.3894 14.569 23.6483 16.3099 21.5008 16.3099H19.3661C17.2185 16.3099 15.4775 14.5689 15.4775 12.4213V11.7649C15.4775 11.5149 15.7708 11.3817 15.9606 11.5445C16.6654 12.1485 17.3087 12.5085 17.4664 12.5399C17.7031 12.5863 20.8352 12.3441 23.2894 8.49359C23.518 8.1349 23.9106 7.914 24.336 7.914H24.8144C25.1318 7.914 25.3894 8.17152 25.3894 8.4891Z" stroke="#3B4BDC" stroke-miterlimit="10" stroke-linecap="round" stroke-linejoin="round"/>
</g>
</g>
</svg>
