<svg width="50" height="50" viewBox="0 0 50 50" fill="none" xmlns="http://www.w3.org/2000/svg">
<g id="presentation 1">
<g id="g705">
<g id="g707">
<path id="path709" d="M41.5569 8.83539V20.1557" stroke="#3B4BDC" stroke-miterlimit="10" stroke-linecap="round" stroke-linejoin="round"/>
</g>
<g id="g711">
<g id="Clip path group">
<mask id="mask0_837_341" style="mask-type:luminance" maskUnits="userSpaceOnUse" x="0" y="0" width="50" height="50">
<g id="clipPath717">
<path id="path715" d="M0 3.8147e-06H50V50H0V3.8147e-06Z" fill="white"/>
</g>
</mask>
<g mask="url(#mask0_837_341)">
<g id="g713">
<g id="g719">
<path id="path721" d="M30.5116 37.9447H5.04175C4.23276 37.9447 3.5769 37.2888 3.5769 36.4799V8.83533" stroke="#3B4BDC" stroke-miterlimit="10" stroke-linecap="round" stroke-linejoin="round"/>
</g>
<g id="g723">
<path id="path725" d="M28.3937 8.83533H2.19727C1.38818 8.83533 0.732422 8.17957 0.732422 7.37048V5.37273C0.732422 4.56375 1.38818 3.90789 2.19727 3.90789H6.95703" stroke="#3B4BDC" stroke-miterlimit="10" stroke-linecap="round" stroke-linejoin="round"/>
</g>
<g id="g727">
<path id="path729" d="M10.1211 3.90795H42.9367C43.7457 3.90795 44.4016 4.56371 44.4016 5.37279V7.37054C44.4016 8.17953 43.7457 8.83539 42.9367 8.83539H31.5078" stroke="#3B4BDC" stroke-miterlimit="10" stroke-linecap="round" stroke-linejoin="round"/>
</g>
<g id="g731">
<path id="path733" d="M9.28174 18.1635H12.1949C12.7343 18.1635 13.1715 17.7262 13.1715 17.1869V15.4955C13.1715 14.9561 12.7343 14.5189 12.1949 14.5189H9.28174C8.74248 14.5189 8.30518 14.9561 8.30518 15.4955V17.1869C8.30518 17.7262 8.74248 18.1635 9.28174 18.1635Z" stroke="#3B4BDC" stroke-miterlimit="10" stroke-linecap="round" stroke-linejoin="round"/>
</g>
<g id="g735">
<path id="path737" d="M16.0308 18.1635H23.062" stroke="#3B4BDC" stroke-miterlimit="10" stroke-linecap="round" stroke-linejoin="round"/>
</g>
<g id="g739">
<path id="path741" d="M16.0308 14.519H25.9214" stroke="#3B4BDC" stroke-miterlimit="10" stroke-linecap="round" stroke-linejoin="round"/>
</g>
<g id="g743">
<path id="path745" d="M9.28174 25.4526H12.1949C12.7343 25.4526 13.1715 25.0154 13.1715 24.476V22.7846C13.1715 22.2453 12.7343 21.808 12.1949 21.808H9.28174C8.74248 21.808 8.30518 22.2453 8.30518 22.7846V24.476C8.30518 25.0154 8.74248 25.4526 9.28174 25.4526Z" stroke="#3B4BDC" stroke-miterlimit="10" stroke-linecap="round" stroke-linejoin="round"/>
</g>
<g id="g747">
<path id="path749" d="M16.0308 25.4526H23.062" stroke="#3B4BDC" stroke-miterlimit="10" stroke-linecap="round" stroke-linejoin="round"/>
</g>
<g id="g751">
<path id="path753" d="M16.0308 21.808H25.9214" stroke="#3B4BDC" stroke-miterlimit="10" stroke-linecap="round" stroke-linejoin="round"/>
</g>
<g id="g755">
<path id="path757" d="M9.28174 32.7416H12.1949C12.7343 32.7416 13.1715 32.3044 13.1715 31.7651V30.0737C13.1715 29.5343 12.7343 29.0971 12.1949 29.0971H9.28174C8.74248 29.0971 8.30518 29.5343 8.30518 30.0737V31.7651C8.30518 32.3044 8.74248 32.7416 9.28174 32.7416Z" stroke="#3B4BDC" stroke-miterlimit="10" stroke-linecap="round" stroke-linejoin="round"/>
</g>
<g id="g759">
<path id="path761" d="M16.0308 32.7416H23.062" stroke="#3B4BDC" stroke-miterlimit="10" stroke-linecap="round" stroke-linejoin="round"/>
</g>
<g id="g763">
<path id="path765" d="M16.0308 29.097H25.9214" stroke="#3B4BDC" stroke-miterlimit="10" stroke-linecap="round" stroke-linejoin="round"/>
</g>
<g id="g767">
<path id="path769" d="M45.6526 46.092V40.478" stroke="#3B4BDC" stroke-miterlimit="10" stroke-linecap="round" stroke-linejoin="round"/>
</g>
<g id="g771">
<path id="path773" d="M39.3068 35.6385H37.9848C37.5907 35.6385 37.2129 35.4819 36.9342 35.2033L31.4791 29.7482C30.7732 29.0424 29.6288 29.0424 28.9229 29.7482C28.2171 30.4542 28.2171 31.5985 28.9229 32.3045L33.4752 36.8566C34.3908 37.7724 34.9053 39.0143 34.9053 40.3094V44.8224C34.9053 45.5236 35.4737 46.092 36.1748 46.092H47.9979C48.699 46.092 49.2675 45.5236 49.2675 44.8224V38.5251C49.2675 36.9308 47.9751 35.6385 46.3809 35.6385H43.7444" stroke="#3B4BDC" stroke-miterlimit="10" stroke-linecap="round" stroke-linejoin="round"/>
</g>
<g id="g775">
<path id="path777" d="M43.7445 33.3196V35.6384C42.8163 37.4194 40.2737 37.4359 39.3223 35.6673L39.3069 35.6384V33.32" stroke="#3B4BDC" stroke-miterlimit="10" stroke-linecap="round" stroke-linejoin="round"/>
</g>
<g id="g779">
<path id="path781" d="M41.5258 33.8738C38.9212 33.8738 36.8098 31.7624 36.8098 29.1578V27.7545C36.8098 25.15 38.9212 23.0385 41.5258 23.0385C44.1304 23.0385 46.2419 25.15 46.2419 27.7545V29.1578C46.2419 31.7624 44.1304 33.8738 41.5258 33.8738Z" stroke="#3B4BDC" stroke-miterlimit="10" stroke-linecap="round" stroke-linejoin="round"/>
</g>
<g id="g783">
<path id="path785" d="M22.5669 37.9447V42.5295" stroke="#3B4BDC" stroke-miterlimit="10" stroke-linecap="round" stroke-linejoin="round"/>
</g>
<g id="g787">
<path id="path789" d="M24.348 44.3108C24.348 45.2946 23.5506 46.092 22.5668 46.092C21.5831 46.092 20.7856 45.2946 20.7856 44.3108C20.7856 43.327 21.5831 42.5295 22.5668 42.5295C23.5506 42.5295 24.348 43.327 24.348 44.3108Z" stroke="#3B4BDC" stroke-miterlimit="10" stroke-linecap="round" stroke-linejoin="round"/>
</g>
</g>
</g>
</g>
</g>
</g>
</g>
</svg>
